<?xml version="1.0" encoding="UTF-8" standalone="no"?>
<svg
   width="360"
   height="24"
   viewBox="0 0 95.25 6.35"
   version="1.1"
   id="svg8"
   xml:space="preserve"
   xmlns="http://www.w3.org/2000/svg"
   xmlns:svg="http://www.w3.org/2000/svg"
   xmlns:rdf="http://www.w3.org/1999/02/22-rdf-syntax-ns#"
   xmlns:cc="http://creativecommons.org/ns#"
   xmlns:dc="http://purl.org/dc/elements/1.1/"><title
     id="title51">MaterialToolbar</title><defs
     id="defs2" /><metadata
     id="metadata5"><rdf:RDF><cc:Work
         rdf:about=""><dc:format>image/svg+xml</dc:format><dc:type
           rdf:resource="http://purl.org/dc/dcmitype/StillImage" /><dc:creator><cc:Agent><dc:title>BaraShiro</dc:title></cc:Agent></dc:creator><dc:title>MaterialToolbar</dc:title><cc:license
           rdf:resource="https://www.apache.org/licenses/LICENSE-2.0" /></cc:Work></rdf:RDF></metadata><g
     id="nofill-wght600"
     style="display:inline;opacity:1;fill:#ffffff"><path
       d="m 288.17996,-165.52 v -628.96 l 494.83,314.48 z m 106,-193.48 190.22,-121 -190.22,-121 z"
       id="play-nofill-wght600"
       style="display:inline;fill:#ffffff"
       transform="matrix(0.00661458,0,0,0.00661458,-0.05420448,6.3499981)" /><path
       d="m 519.43,-159.99979 v -640.00033 h 280.57065 v 640.00033 z m -359.42968,0 V -800.00012 H 440.57 v 640.00033 z m 480.00024,-120.00006 h 40.00002 v -400.00021 h -40.00002 z m -360.00018,0 h 40.00002 v -400.00021 h -40.00002 z"
       id="pause-nofill-wght600"
       style="display:inline;fill:#ffffff"
       transform="matrix(0.00661458,0,0,0.00661458,6.3499984,6.3499981)" /><path
       d="M 199.99969,-199.9999 V -760.00015 H 759.99994 V -199.9999 Z M 319.99974,-319.99995 H 639.99989 V -640.0001 H 319.99974 Z"
       id="stop-nofill-wght600"
       style="display:inline;fill:#ffffff"
       transform="matrix(0.00661458,0,0,0.00661458,12.700002,6.3499984)" /><path
       d="m 179.99963,-199.9999 v -560.00025 h 120.00005 v 560.00025 z m 600.01041,-4.3901 -413.7,-275.61 413.7,-275.61 z m -106,-198.61 v -154 l -116.78,77 z"
       id="skip-backward-nofill-wght600"
       style="display:inline;fill:#ffffff"
       transform="matrix(0.00661458,0,0,0.00661458,25.26771,6.3499984)" /><path
       d="M 37.570899,4.9980444 34.834447,3.175 37.570899,1.3519556 Z m -2.910417,0 L 31.92403,3.175 34.660482,1.3519556 Z M 33.959337,3.6843227 V 2.6656773 L 33.183116,3.175 Z m 2.910416,0 V 2.6656773 L 36.097303,3.175 Z"
       id="decrease-speed-nofill-wght600"
       style="display:inline;fill:#ffffff;stroke-width:0.00661458" /><path
       d="M 38.629102,4.9980444 V 1.3519556 L 41.365553,3.175 Z m 2.910416,0 V 1.3519556 L 44.27597,3.175 Z M 39.330247,3.6843226 40.102698,3.175 39.330247,2.6656773 Z m 2.910417,0 L 43.016885,3.175 42.240664,2.6656773 Z"
       id="increase-speed-nofill-wght600"
       style="fill:#ffffff;stroke-width:0.00661458" /><path
       d="M 48.947979,5.0270831 V 1.3229166 h 0.79375 V 5.0270831 Z M 45.772852,4.9980444 V 1.3519556 L 48.509303,3.175 Z M 46.473997,3.6843227 47.246448,3.175 46.473997,2.6656774 Z"
       id="skip-forward-nofill-wght600"
       style="fill:#ffffff;stroke-width:0.00661458" /><path
       d="M -314.23775,673.96004 V 113.95978 h 120.00006 v 560.00026 z m 199.99068,-4.39011 470.66001,-275.61 -470.66001,-275.61 z m 105.9999996,-194.7 v -161.82 l 137.3100104,80.91 z"
       id="step-nofill-wght600"
       style="fill:#ffffff"
       transform="matrix(0.00661458,0,0,0.00661458,60.286881,0.5691205)" /><path
       d="m -547.49791,684.39618 v -91.61 c 59.62,-18.08667 107.85666,-51.70333 144.71,-100.85 36.86,-49.14667 55.29,-104.86333 55.29,-167.15 0,-62.28667 -18.43,-118.00333 -55.29,-167.15 -36.85334,-49.14666 -85.09,-82.763329 -144.71,-100.849996 v -91.61 c 84.92666,19.046666 154.23666,62.01 207.93,128.89 53.7,66.886666 80.55,143.793326 80.55,230.719996 0,86.92667 -26.85,163.83333 -80.55,230.72 -53.69334,66.88 -123.00334,109.84333 -207.93,128.89 z m -477.87999,-219.39 v -278.44 h 171.30999 l 226.57,-226.559996 V 691.56618 l -226.57,-226.56 z m 477.87999,27.56 v -335.56 c 32.84,15.79333 59.13,38.73333 78.87,68.82 19.74,30.08667 29.61,63.40667 29.61,99.96 0,35.88667 -9.87,68.8 -29.61,98.74 -19.74,29.94 -46.03,52.62 -78.87,68.04 z m -186,-276.39 -76.4,76.39 h -109.47 v 66.44 h 109.47 l 76.4,76.39 z"
       id="sound-nofill-wght600"
       style="fill:#ffffff"
       transform="matrix(0.00661458,0,0,0.00661458,83.51148,1.013447)" /><path
       d="m -60.05897,684.37609 -122.13001,-123.26 c -15.16,9.16 -31.22333,17.1 -48.19,23.82 -16.97333,6.72667 -34.70666,12.04667 -53.2,15.96 v -91.61 c 6.32,-2.2 12.56667,-4.40333 18.74,-6.61 6.17334,-2.2 12.13,-4.88 17.87,-8.04 l -116.61,-117.74 v 231.17 l -226.57,-226.56 h -171.3 v -278.44 h 129.13 l -188.61,-192.000004 61.65,-61.649996 761.44001,772.74 z m 6.7,-243.87 -64.22,-65.35 c 11.33333,-20.29333 19.833334,-41.67667 25.5,-64.15 5.666667,-22.48 8.5,-45.72 8.5,-69.72 0,-62.28667 -18.52,-118.00333 -55.56,-167.150004 -37.04667,-49.146666 -85.19334,-82.7633331 -144.44001,-100.85 v -91.609996 c 84.92667,19.046664 154.33334,62.009996 208.22001,128.889996 53.886667,66.886669 80.83,143.793334 80.83,230.720004 0,36.84 -5.11666597,71.97 -15.349999,105.39 -10.233334,33.42 -24.726667,64.69667 -43.480001,93.83 z m -133.44001,-135.13 -96.78,-97.92 V 73.506086 c 32.84,15.42 59.22334,38.266664 79.15,68.540004 19.93334,30.27333 29.9,63.68667 29.9,100.24 0,11.13333 -1.02333,22.00333 -3.07,32.61 -2.04666,10.60667 -5.11333,20.76667 -9.2,30.48 z m -176.78,-179.61 -123.22,-126.05000363 123.22,-123.20999637 z m -106,226.13 v -83.26 l -58.43,-59.57 h -127.44 v 66.44 h 109.48 z"
       id="muted-nofill-wght600"
       style="fill:#ffffff"
       transform="matrix(0.00661458,0,0,0.00661458,88.115833,1.5948028)" /><path
       d="m -129.24614,481.66181 -74.09,-74.09 104.000003,-104 -104.000003,-104 74.09,-74.09 104.000003,104 104,-104 74.089997,74.09 -103.999997,104 103.999997,104 -74.089997,74.09 -104,-104 z m -552.53,-38.87 v -278.44 h 171.31 l 227.13,-226.560001 V 669.35181 l -227.13,-226.56 z m 292.44,-248.83 -76.96,76.39 h -109.47 v 66.44 h 109.47 l 76.96,76.39 z"
       id="no-sound-nofill-wght600"
       style="fill:#ffffff"
       transform="matrix(0.00661458,0,0,0.00661458,93.938897,1.1669998)" /></g></svg>
