<?xml version="1.0" encoding="UTF-8" standalone="no"?>
<svg
   width="360"
   height="24"
   viewBox="0 0 95.25 6.35"
   version="1.1"
   id="svg8"
   xml:space="preserve"
   xmlns="http://www.w3.org/2000/svg"
   xmlns:svg="http://www.w3.org/2000/svg"
   xmlns:rdf="http://www.w3.org/1999/02/22-rdf-syntax-ns#"
   xmlns:cc="http://creativecommons.org/ns#"
   xmlns:dc="http://purl.org/dc/elements/1.1/"><title
     id="title51">MaterialToolbar</title><defs
     id="defs2" /><metadata
     id="metadata5"><rdf:RDF><cc:Work
         rdf:about=""><dc:format>image/svg+xml</dc:format><dc:type
           rdf:resource="http://purl.org/dc/dcmitype/StillImage" /><dc:creator><cc:Agent><dc:title>BaraShiro</dc:title></cc:Agent></dc:creator><dc:title>MaterialToolbar</dc:title><cc:license
           rdf:resource="https://www.apache.org/licenses/LICENSE-2.0" /></cc:Work></rdf:RDF></metadata><g
     id="nofill-wght400"
     style="display:inline;opacity:1;fill:#ffffff"><path
       d="m -3797.145,-2920.0015 v -560 l 440,280 z m 80,-280 z m 0,134 210,-134 -210,-134 z"
       id="play-nofill-wght400"
       style="display:inline;fill:#ffffff"
       transform="matrix(0.00661458,0,0,0.00661458,27.233187,24.341665)" /><path
       d="m 520,-200 v -560 h 240 v 560 z m -320,0 v -560 h 240 v 560 z m 400,-80 h 80 v -400 h -80 z m -320,0 h 80 v -400 h -80 z"
       id="pause-nofill-wght400"
       style="display:inline;fill:#ffffff"
       transform="matrix(0.00661458,0,0,0.00661458,6.3499984,6.3499981)" /><path
       d="m 240,-240 v -480 h 480 v 480 z M 319.99974,-319.99995 640,-320 v -320 l -320.00026,-10e-5 z"
       id="stop-nofill-wght400"
       style="display:inline;fill:#ffffff"
       transform="matrix(0.00661458,0,0,0.00661458,12.700002,6.3499984)" /><path
       d="m 220,-240 v -480 h 80 v 480 z m 520,0 -360,-240 360,-240 z m -80,-240 z m 0,90 v -180 l -136,90 z"
       id="skip-backward-nofill-wght400"
       style="display:inline;fill:#ffffff"
       transform="matrix(0.00661458,0,0,0.00661458,25.26771,6.3499984)" /><path
       d="m 1134.8974,765.27984 -360.00004,-240 360.00004,-240 z m -400.00004,0 -360,-240 360,-240 z m -80,-240 z m 400.00004,0 z m -400.00004,90 v -180 l -136,90 z m 400.00004,0 v -180 l -136.00004,90 z"
       id="decrease-speed-nofill-wght400"
       style="display:inline;fill:#ffffff"
       transform="matrix(0.00661458,0,0,0.00661458,29.799381,-0.2995055)" /><path
       d="M 38.89375,4.7624992 V 1.5875008 L 41.274999,3.175 Z m 2.645832,0 V 1.5875008 L 43.920831,3.175 Z M 39.422916,3.175 Z m 2.645832,0 z M 39.422916,3.7703122 40.322499,3.175 39.422916,2.5796878 Z m 2.645832,0 L 42.968331,3.175 42.068748,2.5796878 Z"
       id="increase-speed-nofill-wght400"
       style="fill:#ffffff;stroke-width:0.00661458" /><path
       d="M 48.947915,4.7624992 V 1.5875008 h 0.529167 v 3.1749984 z m -2.910415,0 V 1.5875008 L 48.418749,3.175 Z M 46.566666,3.175 Z m 0,0.5953122 L 47.466249,3.175 46.566666,2.5796878 Z"
       id="skip-forward-nofill-wght400"
       style="fill:#ffffff;stroke-width:0.00661458" /><path
       d="M 619.24912,537.9954 V 57.995397 h 80 V 537.9954 Z m 160,0 399.99998,-240 L 779.24912,57.995397 Z m 80,-141 v -198 l 164.99998,99 z m 0,-99 z"
       id="step-nofill-wght400"
       style="fill:#ffffff"
       transform="matrix(0.00661458,0,0,0.00661458,54.641427,1.2038856)" /><path
       d="m 402.85708,690.85761 v -82 q 90,-26 145,-100 55,-74 55,-168 0,-94 -55,-168 -55,-73.999996 -145,-99.999996 V -9.1423862 q 124,28.0000002 202,125.4999962 78,97.5 78,224.5 0,127 -78,224.5 -78,97.5 -202,125.5 z m -439.999998,-229 v -240 H 122.85708 l 200,-199.999996 V 661.85761 l -200,-200 z m 439.999998,40 v -322 q 47,22 73.5,66 26.5,44 26.5,96 0,51 -26.5,94.5 -26.5,43.5 -73.5,65.5 z m -160,-286 -86,86 H 42.857082 v 80 H 156.85708 l 86,86 z m -100,126 z"
       id="sound-nofill-wght400"
       style="fill:#ffffff"
       transform="matrix(0.00661458,0,0,0.00661458,77.239437,0.91375582)" /><path
       d="m 840.07151,710.92896 -121,-121 q -25,16 -53,27.5 -28,11.5 -58,18.5 v -82 q 14,-5 27.5,-10 13.5,-5 25.5,-12 l -133,-133 v 208 l -200,-200 h -160 v -240 h 128 l -192,-191.999998 56,-56 736,735.999998 z m -8,-232 -58,-58 q 17,-31 25.5,-65 8.5,-34 8.5,-70 0,-94 -55,-168 -55,-73.999998 -145,-99.999998 v -82 q 124,28 202,125.5 78,97.499998 78,224.499998 0,53 -14.5,102 -14.5,49 -41.5,91 z m -134,-134 -90,-90 v -130 q 47,22 73.5,66 26.5,44 26.5,96 0,15 -2.5,29.5 -2.5,14.5 -7.5,28.5 z m -170,-170 -104,-103.999998 104,-104 z m -80,238 v -94 l -72,-72 h -128 v 80 h 114 z m -36,-130 z"
       id="muted-nofill-wght400"
       style="fill:#ffffff"
       transform="matrix(0.00661458,0,0,0.00661458,82.232029,1.2770855)" /><path
       d="m 741.71432,488.57181 -56,-56 104,-104 -104,-104 56,-56 104,104 104,-104 55.99998,56 -103.99998,104 103.99998,104 -55.99998,56 -104,-104 z m -496,-40 v -240 h 160 l 200,-200.000002 V 648.57181 l -200,-200 z m 280,-246 -86,86 h -114 v 80 h 114 l 86,86 z m -100,126 z"
       id="no-sound-nofill-wght400"
       style="fill:#ffffff"
       transform="matrix(0.00661458,0,0,0.00661458,88.068454,1.0016353)" /></g></svg>
