<?xml version="1.0" encoding="UTF-8" standalone="no"?>
<svg
   width="360"
   height="24"
   viewBox="0 0 95.25 6.35"
   version="1.1"
   id="svg8"
   xml:space="preserve"
   xmlns="http://www.w3.org/2000/svg"
   xmlns:svg="http://www.w3.org/2000/svg"
   xmlns:rdf="http://www.w3.org/1999/02/22-rdf-syntax-ns#"
   xmlns:cc="http://creativecommons.org/ns#"
   xmlns:dc="http://purl.org/dc/elements/1.1/"><title
     id="title51">MaterialToolbar</title><defs
     id="defs2" /><metadata
     id="metadata5"><rdf:RDF><cc:Work
         rdf:about=""><dc:format>image/svg+xml</dc:format><dc:type
           rdf:resource="http://purl.org/dc/dcmitype/StillImage" /><dc:creator><cc:Agent><dc:title>BaraShiro</dc:title></cc:Agent></dc:creator><dc:title>MaterialToolbar</dc:title><cc:license
           rdf:resource="https://www.apache.org/licenses/LICENSE-2.0" /></cc:Work></rdf:RDF></metadata><g
     id="fill-wght600"
     style="display:inline;fill:#ffffff"><path
       d="M 1.8520833,5.2551528 V 1.0948466 L 5.125176,3.1749997 Z"
       id="play-fill-wght600"
       style="display:inline;fill:#ffffff;stroke-width:0.00661458" /><path
       d="m 520.00043,-159.99984 v -640.00028 h 280.00012 v 640.00028 z m -360.00017,0 V -800.00012 H 440.57 l -0.56961,640.00028 z"
       id="pause-fill-wght600"
       style="display:inline;fill:#ffffff"
       transform="matrix(0.00661458,0,0,0.00661458,6.3499984,6.3499981)" /><path
       d="M 199.99969,-199.9999 V -760.00015 H 759.99994 V -199.9999 Z"
       id="stop-fill-wght600"
       style="display:inline;fill:#ffffff"
       transform="matrix(0.00661458,0,0,0.00661458,12.700002,6.3499984)" /><path
       d="m 179.99963,-199.9999 v -560.00025 h 120.00005 v 560.00025 z m 600.01041,-4.3901 -413.7,-275.61 413.7,-275.61 z"
       id="skip-backward-fill-wght600"
       style="display:inline;fill:#ffffff"
       transform="matrix(0.00661458,0,0,0.00661458,25.26771,6.3499984)" /><path
       d="M 37.570899,4.9980444 34.834447,3.175 37.570899,1.3519556 Z m -2.910351,0 L 31.924096,3.175 34.660548,1.3519556 Z"
       id="decrease-speed-fill-wght600"
       style="fill:#ffffff;stroke-width:0.00661458" /><path
       d="M 38.629102,4.9980441 V 1.3519553 l 2.736451,1.8230444 z m 2.910416,0 V 1.3519553 l 2.736452,1.8230444 z"
       id="increase-speed-fill-wght600"
       style="fill:#ffffff;stroke-width:0.00661458" /><path
       d="M 48.947914,5.0270831 V 1.3229166 h 0.79375 V 5.0270831 Z M 45.772851,4.9980442 V 1.3519554 l 2.736452,1.8230444 z"
       id="skip-forward-fill-wght600"
       style="fill:#ffffff;stroke-width:0.00661458" /><path
       d="m -544.0475,-1071.0793 v -560.0003 h 120.00005 v 560.0003 z m 199.99068,-4.3901 470.66,-275.61 -470.66,-275.61 z"
       id="step-fill-wght600"
       style="fill:#ffffff"
       transform="matrix(0.00661458,0,0,0.00661458,61.806976,12.111823)" /><path
       d="M 79.890142,5.5404402 V 4.9344786 q 0.591542,-0.1794536 0.957196,-0.6670804 0.36572,-0.4876269 0.36572,-1.1056271 0,-0.6180002 -0.36572,-1.105627 Q 80.481684,1.5685172 79.890142,1.3890637 V 0.78310201 q 0.842632,0.18897855 1.37537,0.85255319 0.532804,0.6636408 0.532804,1.5261159 0,0.8624751 -0.532804,1.5261159 -0.532738,0.6635747 -1.37537,0.8525532 z M 76.729167,4.0892675 V 2.2475039 H 77.86231 L 79.360976,0.74890463 V 5.5878668 L 77.86231,4.0892675 Z m 3.160975,0.1822979 V 2.0519769 q 0.325834,0.1566994 0.521692,0.4552154 0.195858,0.298516 0.195858,0.6611934 0,0.3560628 -0.195858,0.6531236 -0.195858,0.2970608 -0.521692,0.4500561 z"
       id="sound-fill-wght600"
       style="fill:#ffffff;stroke-width:0.00661458" /><path
       d="M 87.718567,6.1216632 86.910728,5.3063501 q -0.150415,0.090884 -0.318757,0.1575593 -0.168407,0.066741 -0.351895,0.1055687 V 4.9635164 q 0.06271,-0.021828 0.123957,-0.043722 0.06125,-0.021828 0.118203,-0.053181 L 85.710909,4.0878121 V 5.6169046 L 84.212244,4.1183054 H 83.079166 V 2.2765416 h 0.854141 L 82.685731,1.0065422 83.09352,0.59875336 88.130126,5.710104 Z m 0.04432,-1.6130976 -0.424788,-0.4322628 q 0.112448,-0.2013478 0.168672,-0.4243253 0.05622,-0.2230437 0.05622,-0.4611687 0,-0.6180002 -0.367506,-1.105627 -0.367572,-0.4876269 -0.95541,-0.6670804 V 0.81213971 q 0.842631,0.18897859 1.377288,0.85255319 0.534656,0.6636408 0.534656,1.5261159 0,0.3655218 -0.101534,0.6971107 -0.101533,0.3315889 -0.287602,0.6206461 z M 86.880235,3.6147374 86.240076,2.9670376 v -0.886023 q 0.325834,0.1529952 0.523544,0.4533633 0.197776,0.3003681 0.197776,0.6630455 0,0.1104635 -0.02031,0.2157016 -0.02031,0.105238 -0.06085,0.2016124 z M 85.710909,2.4266925 84.895861,1.5929247 85.710909,0.77794233 Z"
       id="muted-fill-wght600"
       style="fill:#ffffff;stroke-width:0.00661458" /><path
       d="M 93.083921,4.3529904 92.593846,3.8629161 93.281763,3.175 92.593846,2.4870836 93.083921,1.9970094 93.771837,2.6849257 94.459753,1.9970094 94.949827,2.4870836 94.261911,3.175 94.949827,3.8629161 94.459753,4.3529904 93.771837,3.6650741 Z M 89.429167,4.0958817 V 2.2541181 H 90.56231 L 92.06468,0.75551889 V 5.5944809 L 90.56231,4.0958817 Z"
       id="no-sound-fill-wght600"
       style="fill:#ffffff;stroke-width:0.00661458" /></g></svg>
