<?xml version="1.0" encoding="UTF-8" standalone="no"?>
<svg
   width="360"
   height="24"
   viewBox="0 0 95.25 6.35"
   version="1.1"
   id="svg8"
   xml:space="preserve"
   xmlns="http://www.w3.org/2000/svg"
   xmlns:svg="http://www.w3.org/2000/svg"
   xmlns:rdf="http://www.w3.org/1999/02/22-rdf-syntax-ns#"
   xmlns:cc="http://creativecommons.org/ns#"
   xmlns:dc="http://purl.org/dc/elements/1.1/"><title
     id="title51">MaterialToolbar</title><defs
     id="defs2" /><metadata
     id="metadata5"><rdf:RDF><cc:Work
         rdf:about=""><dc:format>image/svg+xml</dc:format><dc:type
           rdf:resource="http://purl.org/dc/dcmitype/StillImage" /><dc:creator><cc:Agent><dc:title>BaraShiro</dc:title></cc:Agent></dc:creator><dc:title>MaterialToolbar</dc:title><cc:license
           rdf:resource="https://www.apache.org/licenses/LICENSE-2.0" /></cc:Work></rdf:RDF></metadata><g
     id="fill-wght200"
     style="display:inline"><path
       d="m 343.07996,-272.31 v -415.38 l 326.15,207.69 z"
       id="play-fill-wght200"
       style="display:inline;fill:#000000"
       transform="matrix(0.00661458,0,0,0.00661458,0.11195377,6.3499981)" /><path
       d="m 520.0005,-240 v -480 h 160.00008 v 480 z m -240.00012,0 v -480 l 160.00008,-8e-5 V -240 Z"
       id="pause-fill-wght200"
       style="display:inline;fill:#000000"
       transform="matrix(0.00661458,0,0,0.00661458,6.3499984,6.3499981)" /><path
       d="m 280,-280 v -400 h 400 v 400 z"
       id="stop-fill-wght200"
       style="display:inline;fill:#000000"
       transform="matrix(0.00661458,0,0,0.00661458,12.700002,6.3499984)" /><path
       d="m 259.99989,-295.38 v -369.24 h 40 v 369.24 z m 440.02014,0 -276.92,-184.62 276.92,-184.62 z"
       id="skip-backward-fill-wght200"
       style="display:inline;fill:#000000"
       transform="matrix(0.00661458,0,0,0.00661458,25.26771,6.3499984)" /><path
       d="m 2211.5426,-1098.2742 -276.92,-184.62 276.92,-184.62 z m -360.0002,0 -276.92,-184.62 276.92,-184.62 z"
       id="decrease-speed-fill-wght200"
       style="display:inline;fill:#000000"
       transform="matrix(0.00661458,0,0,0.00661458,22.14879,11.660806)" /><path
       d="M 39.422917,4.396184 V 1.9538165 l 1.831709,1.2211837 z m 2.38125,0 V 1.9538165 l 1.831709,1.2211837 z"
       id="increase-speed-fill-wght200"
       style="fill:#000000;stroke-width:0.00661458" /><path
       d="M 48.948048,4.396184 V 1.9538165 h 0.264583 V 4.396184 Z m -2.645965,0 V 1.9538165 l 1.83171,1.2211838 z"
       id="skip-forward-fill-wght200"
       style="fill:#000000;stroke-width:0.00661458" /><path
       d="m 1549.4404,-1121.0026 v -369.24 h 40 v 369.24 z m 120.0101,0 308.46,-184.62 -308.46,-184.62 z"
       id="step-fill-wght200"
       style="fill:#000000"
       transform="matrix(0.00661458,0,0,0.00661458,48.753186,11.811145)" /><path
       d="M 79.843113,5.1578531 V 4.8800407 q 0.549473,-0.192352 0.885295,-0.661458 0.335822,-0.469106 0.335822,-1.0501969 0,-0.5810909 -0.335822,-1.0501969 -0.335822,-0.469106 -0.885295,-0.661458 V 1.1789185 q 0.657357,0.2106744 1.071562,0.7563773 0.414139,0.5457028 0.414139,1.23309 0,0.6873872 -0.414139,1.23309 -0.414205,0.5457029 -1.071562,0.7563773 z M 77.258333,3.7041668 V 2.6458339 h 0.905669 L 79.110416,1.6994198 V 4.6505809 L 78.164002,3.7041668 Z m 2.58478,0.3460087 V 2.2865961 q 0.224366,0.1455208 0.341114,0.3831826 0.116813,0.2375957 0.116813,0.5052217 0,0.2661046 -0.119327,0.4978794 -0.119327,0.2317749 -0.3386,0.3772957 z"
       id="sound-fill-wght200"
       style="fill:#000000;stroke-width:0.00661458" /><path
       d="m 87.459078,5.6437928 -0.795271,-0.795271 q -0.109405,0.070181 -0.228467,0.1233619 -0.119063,0.053181 -0.246261,0.09439 V 4.7884614 q 0.07732,-0.02798 0.148828,-0.058539 0.07144,-0.030493 0.135599,-0.071702 L 85.456382,3.6410964 V 4.5590016 L 84.509968,3.6125875 H 83.6043 V 2.5542549 h 0.76524 L 83.079168,1.2638826 83.266427,1.0766238 87.646271,5.456534 Z M 87.253497,4.3178341 87.068289,4.1326258 q 0.163314,-0.2254249 0.252611,-0.4935799 0.0893,-0.2681551 0.0893,-0.5622392 0,-0.5810909 -0.335823,-1.0501969 -0.335822,-0.469106 -0.885295,-0.661458 V 1.0873395 q 0.66245,0.2106743 1.074076,0.7563772 0.411625,0.5457028 0.411625,1.23309 0,0.3454794 -0.111191,0.661987 Q 87.452467,4.0552352 87.2535,4.3178341 Z M 86.519808,3.5840787 86.189079,3.2533497 V 2.195017 q 0.224367,0.1455208 0.341114,0.3831826 0.116813,0.2375958 0.116813,0.5052217 0,0.134805 -0.03182,0.2612757 -0.03182,0.1264708 -0.09538,0.2393817 z M 85.456382,2.5206528 85.00249,2.0617332 85.456382,1.6078408 Z"
       id="muted-fill-wght200"
       style="fill:#000000;stroke-width:0.00661458" /><path
       d="M 92.730305,4.0501749 92.543113,3.8629161 93.231029,3.1749998 92.543113,2.4870835 92.730305,2.2998247 93.418222,2.987741 94.106138,2.2998247 94.293397,2.4870835 93.60548,3.1749998 94.293397,3.8629161 94.106138,4.0501749 93.418222,3.3622586 Z M 89.958333,3.7041662 V 2.6458334 h 0.905669 l 0.946414,-0.9464141 v 2.951161 L 90.864002,3.7041662 Z"
       id="no-sound-fill-wght200"
       style="fill:#000000;stroke-width:0.00661458" /></g></svg>
