<?xml version="1.0" encoding="UTF-8" standalone="no"?>
<svg
   width="360"
   height="24"
   viewBox="0 0 95.25 6.35"
   version="1.1"
   id="svg8"
   xml:space="preserve"
   xmlns="http://www.w3.org/2000/svg"
   xmlns:svg="http://www.w3.org/2000/svg"
   xmlns:rdf="http://www.w3.org/1999/02/22-rdf-syntax-ns#"
   xmlns:cc="http://creativecommons.org/ns#"
   xmlns:dc="http://purl.org/dc/elements/1.1/"><title
     id="title51">MaterialToolbar</title><defs
     id="defs2" /><metadata
     id="metadata5"><rdf:RDF><cc:Work
         rdf:about=""><dc:format>image/svg+xml</dc:format><dc:type
           rdf:resource="http://purl.org/dc/dcmitype/StillImage" /><dc:creator><cc:Agent><dc:title>BaraShiro</dc:title></cc:Agent></dc:creator><dc:title>MaterialToolbar</dc:title><cc:license
           rdf:resource="https://www.apache.org/licenses/LICENSE-2.0" /></cc:Work></rdf:RDF></metadata><g
     id="fill-wght400"
     style="display:inline;fill:#ffffff"><path
       d="m 320,-200 v -560 l 440,280 z"
       id="play-fill-wght400"
       style="display:inline;fill:#ffffff"
       transform="matrix(0.00661458,0,0,0.00661458,2e-6,6.3499981)" /><path
       d="m 560,-200 v -560 h 160 v 560 z m -320,0 v -560 h 160 v 560 z"
       id="pause-fill-wght400"
       style="display:inline;fill:#ffffff"
       transform="matrix(0.00661458,0,0,0.00661458,6.3499984,6.3499981)" /><path
       d="m 240,-240 v -480 h 480 v 480 z"
       id="stop-fill-wght400"
       style="display:inline;fill:#ffffff"
       transform="matrix(0.00661458,0,0,0.00661458,12.700002,6.3499984)" /><path
       d="m 220,-240 v -480 h 80 v 480 z m 520,0 -360,-240 360,-240 z"
       id="skip-backward-fill-wght400"
       style="display:inline;fill:#ffffff"
       transform="matrix(0.00661458,0,0,0.00661458,25.26771,6.3499984)" /><path
       d="m 1208.1335,-1085.8257 -360.00004,-240 360.00004,-240 z m -400.00004,0 -360,-240 360,-240 z"
       id="decrease-speed-fill-wght400"
       style="display:inline;fill:#ffffff"
       transform="matrix(0.00661458,0,0,0.00661458,29.314955,11.94478)" /><path
       d="M 38.89375,4.762499 V 1.5875006 l 2.381249,1.5874992 z m 2.645832,0 V 1.5875006 l 2.381249,1.5874992 z"
       id="increase-speed-fill-wght400"
       style="fill:#ffffff;stroke-width:0.00661458" /><path
       d="M 48.947915,4.7624993 V 1.5875009 h 0.529167 v 3.1749984 z m -2.910415,0 V 1.5875009 l 2.381249,1.5874992 z"
       id="skip-forward-fill-wght400"
       style="fill:#ffffff;stroke-width:0.00661458" /><path
       d="m 485.40385,-1103.5033 v -480 h 80 v 480 z m 160,0 400.00005,-240 -400.00005,-240 z"
       id="step-fill-wght400"
       style="fill:#ffffff"
       transform="matrix(0.00661458,0,0,0.00661458,55.526757,12.06171)" /><path
       d="m 740.35727,-682.35737 v -82 q 90,-26 145,-100 55,-74 55,-168.00003 0,-94 -55,-168 -55,-74 -145,-100 v -82 q 124,28 202,125.5 78.00003,97.5 78.00003,224.5 0,127.00003 -78.00003,224.50003 -78,97.5 -202,125.5 z m -440,-229 v -240.00003 h 160 l 200,-200 v 640.00003 l -200,-200 z m 440,40 v -322.00003 q 47,22 73.5,66 26.5,44 26.5,96 0,51.00003 -26.5,94.50003 -26.5,43.5 -73.5,65.5 z"
       id="sound-fill-wght400"
       style="fill:#ffffff"
       transform="matrix(0.00661458,0,0,0.00661458,75.007015,9.9969963)" /><path
       d="m 886.50016,-623.00025 -121,-121 q -25,16 -53,27.5 -28,11.5 -58,18.5 v -82 q 14,-5 27.5,-10 13.5,-5 25.5,-12 l -133,-133 v 208 l -200,-200 h -160 v -240.00005 h 128 l -192,-192 56,-56 736,736.00005 z m -8,-232 -58,-58 q 17,-31 25.5,-65 8.5,-34.00005 8.5,-70.00005 0,-94 -55,-168 -55,-74 -145,-100 v -82 q 124,28 202,125.5 78,97.5 78,224.5 0,53.00005 -14.5,102.00005 -14.5,49 -41.5,91 z m -134,-134 -90,-90.00005 v -130 q 47,22 73.5,66 26.5,44 26.5,96 0,15 -2.5,29.5 -2.5,14.5 -7.5,28.50005 z m -170,-170.00005 -104,-104 104,-104 z"
       id="muted-fill-wght400"
       style="fill:#ffffff"
       transform="matrix(0.00661458,0,0,0.00661458,81.924922,10.100467)" /><path
       d="m 1014.9288,-900.71454 -55.99999,-56 103.99999,-103.99996 -103.99999,-104 55.99999,-56 104,104 104,-104 56,56 -104,104 104,103.99996 -56,56 -104,-103.99996 z m -495.99999,-40 v -239.99996 h 160 l 200,-200 v 639.99996 l -200,-200 z"
       id="no-sound-fill-wght400"
       style="fill:#ffffff"
       transform="matrix(0.00661458,0,0,0.00661458,86.261255,10.191181)" /></g></svg>
