<?xml version="1.0" encoding="UTF-8" standalone="no"?>
<svg
   xmlns:dc="http://purl.org/dc/elements/1.1/"
   xmlns:cc="http://creativecommons.org/ns#"
   xmlns:rdf="http://www.w3.org/1999/02/22-rdf-syntax-ns#"
   xmlns:svg="http://www.w3.org/2000/svg"
   xmlns="http://www.w3.org/2000/svg"
   width="360"
   height="24"
   viewBox="0 0 95.25 6.35"
   version="1.1"
   id="svg8">
  <defs
     id="defs2" />
  <metadata
     id="metadata5">
    <rdf:RDF>
      <cc:Work
         rdf:about="">
        <dc:format>image/svg+xml</dc:format>
        <dc:type
           rdf:resource="http://purl.org/dc/dcmitype/StillImage" />
        <dc:title></dc:title>
      </cc:Work>
    </rdf:RDF>
  </metadata>
  <g
     id="layer1"
     style="opacity:0.998">
    <path
       d="m 38.629167,4.7625 v -3.175 l 2.38125,1.5875 z m 2.645834,0 v -3.175 l 2.38125,1.5875 z M 39.158334,3.175 Z m 2.645833,0 z M 39.158334,3.770312 40.057917,3.175 39.158334,2.579687 Z m 2.645833,0 L 42.703751,3.175 41.804167,2.579687 Z"
       id="IncreaseSpeed"
       style="stroke-width:0.00661458">
      <title
         id="title30">IncreaseSpeed</title>
    </path>
    <path
       d="M 37.306251,4.7625 34.925,3.175 37.306251,1.5875 Z m -2.645834,0 -2.38125,-1.5875 2.38125,-1.5875 z M 34.13125,3.175 Z m 2.645834,0 z M 34.13125,3.770313 V 2.579688 L 33.231667,3.175 Z m 2.645834,0 V 2.579688 L 35.8775,3.175 Z"
       id="DecreaseSpeed"
       style="stroke-width:0.00661458">
      <title
         id="title28">DecreaseSpeed</title>
    </path>
    <path
       d="m 92.974583,4.2333333 -0.370416,-0.370417 0.687916,-0.687917 -0.687916,-0.687916 0.370416,-0.370417 0.687917,0.687917 0.687917,-0.687917 0.370416,0.370417 -0.687916,0.687916 0.687916,0.687917 -0.370416,0.370417 L 93.6625,3.5454163 Z M 89.69375,3.9687493 v -1.5875 h 1.058333 L 92.075,1.0583333 v 4.233333 l -1.322917,-1.322917 z m 1.852083,-1.627187 -0.568854,0.568854 h -0.754062 v 0.529167 h 0.754062 l 0.568854,0.568854 z m -0.661458,0.833437 z"
       id="NoSound"
       style="stroke-width:0.00661458">
      <title
         id="title38">NoSound</title>
    </path>
    <path
       d="m 9.7895767,5.0270827 v -3.704166 h 1.5875003 v 3.704166 z m -2.11666,0 v -3.704166 h 1.5875 v 3.704166 z m 2.6458303,-0.529166 h 0.52917 v -2.645834 h -0.52917 z m -2.1166703,0 h 0.52917 v -2.645834 h -0.52917 z m 0,-2.645834 v 2.645834 z m 2.1166703,0 v 2.645834 z"
       id="Pause"
       style="stroke-width:0.00661458">
      <title
         id="title20">Pause</title>
    </path>
    <path
       d="m 2.1166667,5.0270827 v -3.704166 l 2.910417,1.852083 z m 0.529167,-1.852083 z m 0,0.886354 1.389062,-0.886354 -1.389062,-0.886354 z"
       id="Play"
       style="stroke-width:0.00661458">
      <title
         id="title22">Play</title>
    </path>
    <path
       d="m 58.7375,4.7625 v -3.175 h 0.529166 v 3.175 z m 1.058333,0 L 62.441666,3.175 59.795833,1.5875 Z M 60.325,3.829843 V 2.520156 L 61.416406,3.175 Z m 0,-0.654843 z"
       id="Step"
       style="stroke-width:0.00661458">
      <title
         id="title32">Step</title>
    </path>
    <path
       d="M 48.683333,4.7625 V 1.5875 H 49.2125 v 3.175 z m -2.910416,0 v -3.175 l 2.38125,1.5875 z M 46.302083,3.175 Z m 0,0.595313 L 47.201667,3.175 46.302083,2.579688 Z"
       id="SkipForward"
       style="stroke-width:0.00661458">
      <title
         id="title26">SkipForward</title>
    </path>
    <path
       d="m 26.722917,4.7625 v -3.175 h 0.529167 v 3.175 z m 3.439583,0 L 27.78125,3.175 30.1625,1.5875 Z M 29.633334,3.175 Z m 0,0.595313 V 2.579688 L 28.73375,3.175 Z"
       id="SkipBackward"
       style="stroke-width:0.00661458">
      <title
         id="title24">SkipBackward</title>
    </path>
    <path
       d="M 14.816667,2.116667 V 4.233333 Z M 14.2875,4.7625 v -3.175 h 3.175 v 3.175 z m 0.529167,-0.529167 h 2.116667 V 2.116667 h -2.116667 z"
       id="Stop"
       style="stroke-width:0.00661458">
      <title
         id="title18">Stop</title>
    </path>
    <path
       d="m 87.550625,5.9795833 -0.800364,-0.800365 q -0.165365,0.105833 -0.350573,0.181901 -0.185209,0.07607 -0.383646,0.12237 v -0.542396 q 0.0926,-0.03307 0.181901,-0.06615 0.0893,-0.03307 0.168672,-0.07937 l -0.87974,-0.879739 v 1.375833 l -1.322916,-1.322918 h -1.058334 v -1.5875 h 0.846667 l -1.27,-1.27 0.370417,-0.37041597 4.868333,4.86833297 z m -0.05292,-1.534584 -0.383646,-0.383646 q 0.112448,-0.205052 0.168672,-0.429947 0.05622,-0.224896 0.05622,-0.463021 0,-0.621771 -0.363802,-1.11125 -0.363802,-0.489479 -0.959115,-0.661459 V 0.85328133 q 0.820208,0.18520797 1.336146,0.83012997 0.515937,0.644922 0.515937,1.484974 0,0.350573 -0.09591,0.674687 -0.09591,0.324115 -0.274504,0.601927 z M 86.61135,3.5586453 86.016038,2.9633333 v -0.859896 q 0.310885,0.145521 0.486172,0.436562 0.175286,0.291042 0.175286,0.635 0,0.09922 -0.01654,0.195131 -0.01654,0.09591 -0.04961,0.188515 z m -1.124475,-1.124479 -0.687916,-0.687917 0.687916,-0.687916 z m -0.529166,1.574271 v -0.621771 l -0.47625,-0.47625 h -0.846667 v 0.529167 h 0.754062 z m -0.238125,-0.859896 z"
       id="Mute"
       style="stroke-width:0.00661458">
      <title
         id="title36">Mute</title>
    </path>
    <path
       d="m 79.904167,5.4834903 v -0.542396 q 0.595312,-0.171979 0.959114,-0.661459 0.363802,-0.489479 0.363802,-1.11125 0,-0.62177 -0.363802,-1.11125 -0.363802,-0.489479 -0.959114,-0.661458 V 0.85328125 q 0.820208,0.18520895 1.336145,0.83013005 0.515938,0.644922 0.515938,1.484974 0,0.840053 -0.515938,1.484974 -0.515937,0.644922 -1.336145,0.830131 z m -2.910417,-1.51474 v -1.5875 h 1.058333 L 79.375,1.0583332 v 4.2333341 l -1.322917,-1.322917 z m 2.910417,0.264583 v -2.129895 q 0.310885,0.14552 0.486171,0.436562 0.175287,0.291042 0.175287,0.635 0,0.337344 -0.175287,0.625078 -0.175286,0.287735 -0.486171,0.433255 z m -1.058334,-1.89177 -0.568854,0.568854 h -0.754062 v 0.529166 h 0.754062 l 0.568854,0.568855 z m -0.661458,0.833437 z"
       id="Volume"
       style="stroke-width:0.00661458">
      <title
         id="title34">Volume</title>
    </path>
  </g>
</svg>
