<?xml version="1.0" encoding="UTF-8" standalone="no"?>
<svg
   width="360"
   height="24"
   viewBox="0 0 95.25 6.35"
   version="1.1"
   id="svg8"
   xml:space="preserve"
   xmlns="http://www.w3.org/2000/svg"
   xmlns:svg="http://www.w3.org/2000/svg"
   xmlns:rdf="http://www.w3.org/1999/02/22-rdf-syntax-ns#"
   xmlns:cc="http://creativecommons.org/ns#"
   xmlns:dc="http://purl.org/dc/elements/1.1/"><title
     id="title51">MaterialToolbar</title><defs
     id="defs2" /><metadata
     id="metadata5"><rdf:RDF><cc:Work
         rdf:about=""><dc:format>image/svg+xml</dc:format><dc:type
           rdf:resource="http://purl.org/dc/dcmitype/StillImage" /><dc:creator><cc:Agent><dc:title>BaraShiro</dc:title></cc:Agent></dc:creator><dc:title>MaterialToolbar</dc:title><cc:license
           rdf:resource="https://www.apache.org/licenses/LICENSE-2.0" /></cc:Work></rdf:RDF></metadata><g
     id="nofill-wght200"
     style="display:inline;opacity:1"><path
       d="M 2.38125,4.5487813 V 1.8012171 L 4.5385953,3.1749992 Z M 2.6458332,3.1749992 Z m 0,0.8863537 L 4.0450815,3.1749992 2.6458332,2.2886455 Z"
       id="play-nofill-wght200"
       style="display:inline;fill:#000000;stroke-width:0.00661458" /><path
       d="m 520.0008,-240 v -480 h 159.99948 v 480 z m -240.0006,0 v -480 h 160.00044 v 480 z m 280.00062,-40 h 79.99946 v -400 h -79.99946 z m -240.00062,0 h 80.00042 V -680 H 320.0002 Z"
       id="pause-nofill-wght200"
       style="display:inline;fill:#000000"
       transform="matrix(0.00661458,0,0,0.00661458,6.3499984,6.3499981)" /><path
       d="m 280,-280 v -400 h 400 v 400 z M 319.99974,-319.99995 640,-320 v -320 l -320.00026,-10e-5 z"
       id="stop-nofill-wght200"
       style="display:inline;fill:#000000"
       transform="matrix(0.00661458,0,0,0.00661458,12.700002,6.3499984)" /><path
       d="M 26.9875,4.3961838 V 1.9538162 h 0.264583 v 2.4423676 z m 2.910548,0 L 28.066339,3.175 29.898048,1.9538162 Z m -0.264583,-0.49358 V 2.4473962 L 28.540538,3.175 Z"
       id="skip-backward-nofill-wght200"
       style="display:inline;fill:#000000;stroke-width:0.00661458" /><path
       d="m 36.777215,4.3961838 -1.83171,-1.2211839 1.83171,-1.2211837 z m -2.38125,0 -1.831709,-1.2211839 1.831709,-1.2211837 z M 34.131382,3.9026037 V 2.4473961 l -1.092927,0.7276038 z m 2.38125,0 V 2.4473961 l -1.092927,0.7276038 z"
       id="decrease-speed-nofill-wght200"
       style="display:inline;fill:#000000;stroke-width:0.00661458" /><path
       d="M 39.422917,4.3961838 V 1.9538162 l 1.831709,1.2211839 z m 2.381118,0 V 1.9538162 l 1.83171,1.2211839 z M 39.6875,3.9026038 40.780427,3.175 39.6875,2.4473962 Z m 2.381119,0 1.092927,-0.7276037 -1.092927,-0.7276038 z"
       id="increase-speed-nofill-wght200"
       style="fill:#000000;stroke-width:0.00661458" /><path
       d="M 48.947917,4.3961838 V 1.9538162 h 0.264582 v 2.4423676 z m -2.645834,0 V 1.9538162 l 1.831709,1.2211837 z M 46.566666,3.9026037 47.659593,3.1749999 46.566666,2.4473962 Z"
       id="skip-forward-nofill-wght200"
       style="display:inline;fill:#000000;stroke-width:0.00661458" /><path
       d="M 59.002083,4.3961838 V 1.9538162 h 0.264584 v 2.4423676 z m 0.793817,0 L 61.836234,3.175 59.7959,1.9538162 Z M 60.060484,3.9163622 V 2.4336379 L 61.299394,3.175 Z"
       id="step-nofill-wght200"
       style="fill:#000000;stroke-width:0.00661458" /><path
       d="M 79.843113,5.157853 V 4.8800406 q 0.549473,-0.192352 0.885295,-0.661458 0.335823,-0.469106 0.335823,-1.0501968 0,-0.5810909 -0.335823,-1.0501969 -0.335822,-0.469106 -0.885295,-0.661458 V 1.1789186 q 0.657357,0.2106743 1.071562,0.7563772 0.414139,0.5457028 0.414139,1.23309 0,0.6873871 -0.414139,1.23309 Q 80.50047,4.9471786 79.843113,5.157853 Z M 77.258333,3.7041667 V 2.6458339 h 0.905669 l 0.946414,-0.946414 v 2.951161 L 78.164002,3.7041667 Z m 2.58478,0.3460087 V 2.2865961 q 0.224367,0.1455208 0.341114,0.3831826 0.116813,0.2375957 0.116813,0.5052216 0,0.2661046 -0.119327,0.4978795 -0.119327,0.2317749 -0.3386,0.3772956 z m -0.99728,-1.7086121 -0.568854,0.5688538 h -0.754062 v 0.5291664 h 0.754062 l 0.568854,0.5688539 z m -0.661458,0.833437 z"
       id="sound-nofill-wght200"
       style="fill:#000000;stroke-width:0.00661458" /><path
       d="M 87.459077,5.6437928 86.663806,4.8485219 q -0.109405,0.070181 -0.228468,0.1233619 -0.119062,0.053181 -0.246261,0.09439 V 4.7884615 q 0.07733,-0.02798 0.148829,-0.058539 0.07144,-0.030493 0.135598,-0.071702 L 85.45638,3.6410964 V 4.5590017 L 84.509966,3.6125876 H 83.604298 V 2.5542548 h 0.765241 L 83.079167,1.2638825 83.266425,1.0766238 87.646269,5.4565341 Z M 87.253496,4.3178341 87.068287,4.1326259 q 0.163314,-0.2254249 0.252611,-0.49358 0.0893,-0.2681551 0.0893,-0.5622393 0,-0.5810908 -0.335822,-1.0501968 -0.335822,-0.469106 -0.885296,-0.661458 V 1.0873394 q 0.662451,0.2106744 1.074076,0.7563772 0.411625,0.5457029 0.411625,1.23309 0,0.3454795 -0.111191,0.6619872 -0.111125,0.3164415 -0.310091,0.5790403 z M 86.519806,3.5840788 86.189077,3.2533498 V 2.195017 q 0.224367,0.1455207 0.341114,0.3831826 0.116814,0.2375957 0.116814,0.5052216 0,0.1348051 -0.03182,0.2612759 -0.03182,0.1264708 -0.09538,0.2393817 z M 85.45638,2.5206527 85.002488,2.0617332 85.45638,1.6078407 Z M 85.191797,3.9168583 V 3.3765132 L 84.634122,2.818838 h -0.765241 v 0.5291664 h 0.754062 z m -0.27887,-0.8192158 z"
       id="muted-nofill-wght200"
       style="fill:#000000;stroke-width:0.00661458" /><path
       d="M 92.730305,4.0501749 92.543113,3.8629161 93.231029,3.1749998 92.543113,2.4870835 92.730305,2.2998247 93.418222,2.9877411 94.106138,2.2998247 94.293397,2.4870835 93.60548,3.1749998 94.293397,3.8629161 94.106138,4.0501749 93.418222,3.3622586 Z M 89.958333,3.7041662 V 2.6458334 h 0.905669 l 0.946414,-0.9464141 v 2.951161 L 90.864002,3.7041662 Z m 1.5875,-1.3626035 -0.568854,0.5688539 H 90.222917 V 3.439583 h 0.754062 l 0.568854,0.5688539 z m -0.661458,0.8334371 z"
       id="no-sound-nofill-wght200"
       style="fill:#000000;stroke-width:0.00661458" /></g></svg>
